#!OML:ASF X:\für Bonn\!DataBase\2005_08_12_Daniel\c3d\Daniel.ASF
:FULLY-SPECIFIED
:DEGREES
226
root 0.434985 14.9593 -16.7708 376.623 24.3522 12.3887
lowerback 87.2124 -8.79595 11.6535
upperback 6.97252 2.65604 -2.01188
thorax -10.7426 1.87691 -7.80356
lowerneck 3.76378 -9.42546 -0.7687
upperneck 5.63532 -12.4905 6.37428
head 1.64071 -6.05734 2.06566
rclavicle -2.8625e-014 -6.55989e-014
rhumerus 241.946 -164.973 -265.662
rradius 4.91187
rwrist 41.6384
rhand -40.103 7.83846
rfingers 7.12502
rthumb -13.067 -21.7322
lclavicle -2.8625e-014 -6.55989e-014
lhumerus -25.697 -19.6513 95.4823
lradius 53.6193
lwrist 13.9705
lhand -8.24322 -9.09238
lfingers 7.12502
lthumb 17.6748 20.1243
rfemur -61.8051 -13.0119 3.06265
rtibia 83.1935
rfoot -30.7819 -6.90995
rtoes -17.4779
lfemur -66.4672 -6.91975 -29.4693
ltibia 73.3629
lfoot -15.3672 -26.2703
ltoes -1.87263
227
root 0.428485 14.9442 -16.7704 376.65 24.4291 12.4902
lowerback 87.3452 -8.79826 11.6663
upperback 6.915 2.69875 -2.00586
thorax -10.7843 1.89132 -7.81631
lowerneck 3.65148 -9.46397 -0.718424
upperneck 5.62343 -12.5423 6.33785
head 1.65181 -6.08144 2.03959
rclavicle 1.62208e-013 -3.69739e-014
rhumerus 242.09 -165.256 -265.662
rradius 4.88798
rwrist 42.5902
rhand -39.9749 7.36465
rfingers 7.12502
rthumb -12.9436 -22.2139
lclavicle 1.62208e-013 -3.69739e-014
lhumerus -25.5989 -19.3911 95.5656
lradius 53.5937
lwrist 13.8546
lhand -8.0864 -9.15713
lfingers 7.12502
lthumb 17.8257 20.0459
rfemur -61.8849 -13.0359 2.97563
rtibia 83.4
rfoot -30.866 -6.98775
rtoes -17.5807
lfemur -66.5434 -6.84615 -29.6032
ltibia 73.4924
lfoot -15.3418 -26.4173
ltoes -1.78666
228
root 0.420838 14.93 -16.7694 376.67 24.5082 12.5771
lowerback 87.4771 -8.79245 11.6716
upperback 6.87564 2.74535 -1.98759
thorax -10.8045 1.9084 -7.81198
lowerneck 3.50852 -9.4851 -0.7053
upperneck 5.57597 -12.5743 6.32458
head 1.66009 -6.09758 2.02638
rclavicle 1.59028e-014 9.54166e-015
rhumerus 242.278 -165.555 -265.656
rradius 4.84124
rwrist 43.536
rhand -39.8449 6.94967
rfingers 7.12502
rthumb -12.8183 -22.6368
lclavicle 1.59028e-014 9.54166e-015
lhumerus -25.4591 -19.0857 95.6282
lradius 53.6112
lwrist 13.7621
lhand -7.8378 -9.11403
lfingers 7.12502
lthumb 18.0649 20.0671
rfemur -61.9449 -13.0204 2.89702
rtibia 83.6051
rfoot -30.9837 -7.0604
rtoes -17.6081
lfemur -66.6177 -6.74014 -29.7293
ltibia 73.6191
lfoot -15.2887 -26.6113
ltoes -1.58992
229
root 0.413558 14.9145 -16.769 376.727 24.5959 12.7053
lowerback 87.6085 -8.80533 11.6797
upperback 6.80444 2.77646 -1.97579
thorax -10.8651 1.91554 -7.8115
lowerneck 3.40366 -9.51743 -0.700205
upperneck 5.55027 -12.6198 6.31389
head 1.67031 -6.11999 2.01655
rclavicle 0 -1.59028e-015
rhumerus 242.439 -165.849 -265.634
rradius 4.753
rwrist 44.4344
rhand -39.7224 6.56445
rfingers 7.12502
rthumb -12.7002 -23.0294
lclavicle 0 -1.59028e-015
lhumerus -25.3944 -18.7501 95.7087
lradius 53.6481
lwrist 13.6448
lhand -7.56666 -9.15056
lfingers 7.12502
lthumb 18.3258 20.0062
rfemur -62.0437 -13.0317 2.78237
rtibia 83.8234
rfoot -31.0802 -7.1596
rtoes -17.7013
lfemur -66.7177 -6.68036 -29.8854
ltibia 73.7441
lfoot -15.2639 -26.7694
ltoes -1.55063
230
root 0.406087 14.8991 -16.7682 376.773 24.6627 12.8454
lowerback 87.73 -8.80572 11.6821
upperback 6.76753 2.81169 -1.96942
thorax -10.8853 1.93046 -7.81687
lowerneck 3.22175 -9.54488 -0.661417
upperneck 5.53008 -12.6615 6.30072
head 1.69267 -6.13897 1.99639
rclavicle -5.08889e-014 4.17448e-014
rhumerus 242.644 -166.081 -265.596
rradius 4.64263
rwrist 45.3085
rhand -39.5813 6.30488
rfingers 7.12502
rthumb -12.5641 -23.2973
lclavicle -5.08889e-014 4.17448e-014
lhumerus -25.3086 -18.4828 95.7683
lradius 53.7101
lwrist 13.5232
lhand -7.33119 -9.14297
lfingers 7.12502
lthumb 18.5523 19.9923
rfemur -62.133 -13.0422 2.65386
rtibia 84.0426
rfoot -31.1568 -7.24396
rtoes -17.7969
lfemur -66.7814 -6.59969 -30.058
ltibia 73.8594
lfoot -15.2321 -26.9259
ltoes -1.44795
231
root 0.397959 14.8835 -16.7672 376.825 24.734 12.9708
lowerback 87.8543 -8.78575 11.6666
upperback 6.72461 2.85774 -1.93323
thorax -10.9146 1.94452 -7.78332
lowerneck 3.00362 -9.57511 -0.721442
upperneck 5.54463 -12.712 6.29408
head 1.74043 -6.16268 1.99134
rclavicle -3.81667e-014 -1.86858e-014
rhumerus 242.854 -166.352 -265.523
rradius 4.48139
rwrist 46.194
rhand -39.5022 6.03281
rfingers 7.12502
rthumb -12.4879 -23.5741
lclavicle -3.81667e-014 -1.86858e-014
lhumerus -25.2136 -18.1092 95.8774
lradius 53.7718
lwrist 13.4217
lhand -7.14759 -9.1298
lfingers 7.12502
lthumb 18.7289 19.9886
rfemur -62.2228 -13.0327 2.53597
rtibia 84.2644
rfoot -31.2822 -7.31949
rtoes -17.9449
lfemur -66.8703 -6.4947 -30.2303
ltibia 73.9823
lfoot -15.2227 -27.0926
ltoes -1.40581
232
root 0.389859 14.8679 -16.7668 376.862 24.8064 13.1155
lowerback 88.4257 -8.83274 11.6267
upperback 6.22658 2.89856 -2.01781
thorax -10.9218 1.96394 -7.7462
lowerneck 2.79048 -9.60392 -0.724779
upperneck 5.54866 -12.7592 6.30253
head 1.78103 -6.18385 1.98244
rclavicle -9.54166e-015 -1.94809e-014
rhumerus 243.053 -166.572 -265.463
rradius 4.32086
rwrist 47.0246
rhand -39.422 5.67798
rfingers 7.12502
rthumb -12.4106 -23.9336
lclavicle -9.54166e-015 -1.94809e-014
lhumerus -25.1267 -17.7912 95.9459
lradius 53.828
lwrist 13.3146
lhand -6.99538 -9.13756
lfingers 7.12502
lthumb 18.8753 19.9666
rfemur -62.2955 -13.0409 2.39589
rtibia 84.4839
rfoot -31.383 -7.37569
rtoes -17.9701
lfemur -66.9346 -6.41819 -30.4062
ltibia 74.0927
lfoot -15.1724 -27.2477
ltoes -1.3886
233
root 0.38208 14.8537 -16.7663 376.954 24.8818 13.281
lowerback 88.5678 -8.84811 11.6231
upperback 6.16469 2.92122 -2.0031
thorax -10.9706 1.96956 -7.73343
lowerneck 2.41263 -9.63871 -0.779224
upperneck 5.65107 -12.8231 6.28198
head 1.88418 -6.20948 1.96136
rclavicle 1.59028e-014 -6.24184e-014
rhumerus 243.274 -166.77 -265.357
rradius 4.09488
rwrist 47.8661
rhand -39.4331 5.23791
rfingers 7.12502
rthumb -12.4212 -24.373
lclavicle 1.59028e-014 -6.24184e-014
lhumerus -25.0154 -17.4498 96.0584
lradius 53.8908
lwrist 13.1504
lhand -6.94456 -9.12309
lfingers 7.12502
lthumb 18.9241 19.9763
rfemur -62.4084 -13.0748 2.2543
rtibia 84.6983
rfoot -31.4752 -7.46122
rtoes -18.0614
lfemur -67.0344 -6.36941 -30.5932
ltibia 74.1914
lfoot -15.119 -27.396
ltoes -1.34235
234
root 0.374028 14.8388 -16.7657 377.007 24.9431 13.4441
lowerback 88.7484 -8.84602 11.5977
upperback 6.09118 2.94827 -1.98871
thorax -11.0293 1.97618 -7.71532
lowerneck 2.12046 -9.67169 -0.82192
upperneck 5.71927 -12.8805 6.28511
head 1.96262 -6.23339 1.95116
rclavicle -7.95139e-014 -6.20208e-014
rhumerus 243.41 -166.906 -265.226
rradius 3.93658
rwrist 48.617
rhand -39.4825 4.78567
rfingers 7.12502
rthumb -12.4689 -24.8224
lclavicle -7.95139e-014 -6.20208e-014
lhumerus -24.9691 -17.1762 96.158
lradius 54.0001
lwrist 13.1299
lhand -6.98249 -9.11024
lfingers 7.12502
lthumb 18.8877 19.9927
rfemur -62.4901 -13.1 2.1001
rtibia 84.9093
rfoot -31.5638 -7.50463
rtoes -18.0916
lfemur -67.0822 -6.28683 -30.7876
ltibia 74.28
lfoot -15.0888 -27.559
ltoes -1.29188
235
root 0.366464 14.8257 -16.7648 377.066 25.0086 13.5849
lowerback 88.8236 -8.82421 11.5793
upperback 6.08013 2.9809 -1.96803
thorax -11.0291 1.99082 -7.69509
lowerneck 1.94161 -9.70355 -0.760332
upperneck 5.67343 -12.9265 6.24925
head 1.97294 -6.25545 1.92047
rclavicle -3.18055e-014 2.0276e-014
rhumerus 243.584 -167.024 -265.105
rradius 3.74916
rwrist 49.375
rhand -39.6156 4.08855
rfingers 7.12502
rthumb -12.5973 -25.5116
lclavicle -3.18055e-014 2.0276e-014
lhumerus -24.886 -16.8736 96.2313
lradius 54.1131
lwrist 13.0401
lhand -7.06939 -9.11237
lfingers 7.12502
lthumb 18.8041 19.9987
rfemur -62.5587 -13.114 1.96334
rtibia 85.1011
rfoot -31.6618 -7.53309
rtoes -18.1816
lfemur -67.1486 -6.21644 -30.9642
ltibia 74.366
lfoot -15.0634 -27.6888
ltoes -1.27036
236
root 0.358688 14.814 -16.7637 377.144 25.0436 13.77
lowerback 88.86 -8.76239 11.5212
upperback 6.09038 3.01218 -1.93601
thorax -11.0157 2.00603 -7.64857
lowerneck 1.84544 -9.73421 -0.708044
upperneck 5.59662 -12.9681 6.24052
head 1.96152 -6.27701 1.90499
rclavicle 6.36111e-015 2.0276e-014
rhumerus 243.669 -167.1 -264.955
rradius 3.654
rwrist 50.089
rhand -39.8707 3.32767
rfingers 7.12502
rthumb -12.8431 -26.2572
lclavicle 6.36111e-015 2.0276e-014
lhumerus -24.848 -16.6368 96.3092
lradius 54.2638
lwrist 13.0261
lhand -7.17985 -9.09734
lfingers 7.12502
lthumb 18.6978 20.024
rfemur -62.6402 -13.145 1.79166
rtibia 85.2829
rfoot -31.7361 -7.56641
rtoes -18.22
lfemur -67.1953 -6.13874 -31.1804
ltibia 74.4276
lfoot -15.0294 -27.8293
ltoes -1.23116
